<svg id="Solutions-TT_Teds_Medium_DEMO_Regular" data-name="Solutions-TT Teds Medium DEMO Regular" xmlns="http://www.w3.org/2000/svg" viewBox="0 0 1198.84 445.34"><defs><style>.cls-1{fill:#39f;}.cls-2{fill:#494949;}</style></defs><path class="cls-1" d="M147.32,208.19v-102c.08-7.88,0-11.68,0-16.72,0-4.09-.67-8-1.95-10.57a12,12,0,0,0-4.83-5.39,14.9,14.9,0,0,0-7.08-1.56,30,30,0,0,0-11,2.13,38.66,38.66,0,0,0-17.06,12.9c-1.93,2.65-3.4,5.2-3.83,7.66V208H77.77v-102A143,143,0,0,0,77,89.2a32.07,32.07,0,0,0-2.74-10.35,11.87,11.87,0,0,0-4.83-5.39,14.88,14.88,0,0,0-7.08-1.56A30,30,0,0,0,51.38,74a38.39,38.39,0,0,0-9.82,5.53,37.83,37.83,0,0,0-7.24,7.37c-1.93,2.65-3.51,5.2-3.94,7.65V208H6.64V55.46H30.38V72.84a59.12,59.12,0,0,1,10.7-9.16,67.93,67.93,0,0,1,12.23-6.24,42.29,42.29,0,0,1,15.77-2.83q14.49,0,21.09,5.39t9.17,15.31a77.2,77.2,0,0,1,16.74-14.46q9.65-6.24,24.14-6.24,11.26,0,17.86,3.54a23.49,23.49,0,0,1,10,10.07c2.25,4.35,4.28,11.18,4.34,15.59,0,.63-.06,12.86-.06,20.41V208Z"/><path class="cls-1" d="M292.36,208.19a64.58,64.58,0,0,0-.17-7.57,33,33,0,0,0-.89-3.71c-6.37,4.25-2.34,2-10.91,7-7.21,4.24-16.65,6.71-27.46,6.71-9.46,0-20-3.57-26.57-9.69s-12.51-19.83-12.51-34.14c0-10-.12-21.75,3.14-28.34s7-11.79,12.26-15.74,10.54-5.15,18.49-6.22c6.8-.91,17.68-.87,24.44-.87h17.37a157.53,157.53,0,0,0-.89-17.21A45.61,45.61,0,0,0,285.11,84c-1.8-4-3.06-5.74-5.9-7.7-2.68-1.85-6.37-3.48-12.23-3.48-5.18,0-6.6,0-14.7,0-4.08,0-4.19,0-10.24.07-8.08,0-13,0-16.19,0l.07-12.32c6.52-1.09,6.49-1.09,10.35-1.91a158.45,158.45,0,0,1,17.9-3,112.93,112.93,0,0,1,21.77-.32,68.65,68.65,0,0,1,20,5,27.89,27.89,0,0,1,13.85,10.88c3.15,4.89,3.38,8.76,3.94,15.94.58,7.56.51,16.38.51,26.54l.06,49.94c0,1.6.07,8.19,0,13.3,0,4.71,0,8.64,0,12.25,0,8.33.1,13.64,0,19ZM289.6,134.1H273.38c-9.91,0-18.06-.47-25,5.34s-8.57,12.36-8.57,25.35c0,7.34,3.06,15,5.88,19.73s6.86,7,12.34,7.45c7.86.63,20.25,1.15,26.66-3.91S290,175.54,290,168.39c0-2.78.16-5.43.16-8.21Z"/><path class="cls-1" d="M547.28,208.19l-47.62-73.92v73.67H473.52V0h26.14V129l41-71.44H567.7l-43.14,72.17,49.78,78.47Z"/><path class="cls-1" d="M435.5,58l-.07,20.47c-1.23,0-1,0-2.21,0s-1.91,0-4.62,0c-2.06,0-2.08,0-5.8,0-5.41,0-8.9-.07-13,0-3.79,0-6.91,0-10,.08a30.26,30.26,0,0,0-5.23.7,32.67,32.67,0,0,0-4.77,1.61c-.89.41-4,1.93-4.51,3.06V207.78l-27.09.13v-100L358.31,58l21.95,0,3.06,10.53c2.61-3.15,8.61-5.26,11-6.13A93.14,93.14,0,0,1,408.6,59.1c5.61-.7,6-.7,16.68-1.15h5"/><path class="cls-1" d="M711.25,130.82a128.81,128.81,0,0,1-3.59,31.56,75.08,75.08,0,0,1-10.61,24.44,50.54,50.54,0,0,1-17,15.78,45.51,45.51,0,0,1-22.69,5.59q-26.13,0-39.84-19.27t-13.71-56.71a130.12,130.12,0,0,1,3.59-31.84,75.65,75.65,0,0,1,10.45-24.3,48.23,48.23,0,0,1,16.82-15.5,46.49,46.49,0,0,1,22.69-5.45q26.11,0,40,19.13T711.25,130.82Zm-24.48.46a155.88,155.88,0,0,0-1.8-24.42,81.31,81.31,0,0,0-5.39-19.5,35.51,35.51,0,0,0-9.14-13.06,19.46,19.46,0,0,0-13.06-4.77A19.91,19.91,0,0,0,644,74.3a35.51,35.51,0,0,0-9.14,13.06,81.31,81.31,0,0,0-5.39,19.5,154.73,154.73,0,0,0-1.79,24.42,154.55,154.55,0,0,0,1.79,24.42,81.27,81.27,0,0,0,5.39,19.51,35.38,35.38,0,0,0,9.14,13A19.81,19.81,0,0,0,657.38,193a19.36,19.36,0,0,0,13.06-4.77,35.38,35.38,0,0,0,9.14-13A81.27,81.27,0,0,0,685,155.7,155.7,155.7,0,0,0,686.77,131.28Z"/><path class="cls-1" d="M815,208.19H780L737.64,57.42h28.69l31.13,121.39L828.65,57.42h27.18Z"/><path class="cls-1" d="M974.06,165.13a41.48,41.48,0,0,1-3.38,16.68,33.82,33.82,0,0,1-10.53,13.35,53.86,53.86,0,0,1-18.1,8.75,91.87,91.87,0,0,1-25.64,3.2,192,192,0,0,1-25.25-1.39Q881,204.33,877,202.11V189.32a86.41,86.41,0,0,0,13.72,2.22q8.55.84,20.08.83,10.74,0,17.3-2.22A25.67,25.67,0,0,0,938.48,184a19,19,0,0,0,5-8.9,45.68,45.68,0,0,0,1.19-10.56,17.93,17.93,0,0,0-7.76-15.16,96,96,0,0,0-17.69-10.14q-6.77-2.78-13.52-6.26a64.18,64.18,0,0,1-12.33-8.2,39.39,39.39,0,0,1-9.14-11.26,32.18,32.18,0,0,1-3.58-15.7c0-5.75-.43-12.23,1.55-17.23a34.9,34.9,0,0,1,9.35-13.21A44.29,44.29,0,0,1,908,58.53c6.76-2.13,16.2-2.1,25.48-2.1a178.28,178.28,0,0,1,24.66,1.39q9.54,1.4,12.72,3.34V74A58.94,58.94,0,0,0,959,71.86q-7.56-.69-15.9-.69-9.94,0-16.3,2.08A26.11,26.11,0,0,0,916.61,79a20.24,20.24,0,0,0-5.37,8.34A30.38,30.38,0,0,0,909.65,97a19,19,0,0,0,2.18,9.45,23.58,23.58,0,0,0,5.77,6.81,39.24,39.24,0,0,0,8.35,5.15q4.77,2.22,9.94,4.17,6.36,2.78,13.32,6a48.5,48.5,0,0,1,12.33,8.07,41.64,41.64,0,0,1,8.94,11.67Q974.07,155.14,974.06,165.13Z"/><path class="cls-1" d="M1154.15,32.65V6.44H1179V32.65Zm0,175.29V57.42H1179V207.94Z"/><path class="cls-1" d="M1090.82,207.94l-47-73.67v73.67H1017.7V0h26.14V129l40-71.55,28.62,0-43.69,72.3,50.69,78.22Z"/><path class="cls-2" d="M65.09,273.78c-20.77,0-31.85,10.89-31.85,27.23,0,35.4,77.56,25.87,77.56,85.78,0,35.4-23.55,58.55-59.56,58.55-29.08,0-49.85-9.53-49.85-9.53V415.39H44.32c20.77,0,33.24-12,33.24-30C77.56,350,0,359.56,0,299.65,0,267,23.54,243.82,58.17,243.82a113.51,113.51,0,0,1,45.7,9.53v20.43Z"/><path class="cls-2" d="M264.55,344.5c0,72.22-28.42,100.84-65,100.84s-65-28.62-65-100.84,28.42-100.85,65-100.85S264.55,272.27,264.55,344.5Zm-32.48-.31c0-56.05-14.89-71.08-32.48-71.08s-32.49,15-32.49,71.08,14.89,71.08,32.49,71.08S232.07,400.23,232.07,344.19Z"/><path class="cls-2" d="M332.93,416.14h66.42v26.73H301.09V245.72H333Z"/><path class="cls-2" d="M456.13,381c0,21.91,11.78,34.23,26.18,34.23S508.49,402.9,508.49,381V248.19h30.1V381c0,39.71-23.56,64.35-56.28,64.35S426,420.7,426,381V248.19h30.11Z"/><path class="cls-2" d="M565.52,245.72H683.24v31H640.31V442.87H608.46V276.7H565.52Z"/><path class="cls-2" d="M741,442.88H709.11V246.23H741Z"/><path class="cls-2" d="M972.81,246.23,1025.44,367h1.38V246.23h31.86V442.87h-31.86l-52.63-120.8h-1.38v120.8H941V246.23Z"/><path class="cls-2" d="M1153.13,273.63c-20.77,0-31.85,10.91-31.85,27.26,0,35.43,77.56,25.89,77.56,85.85,0,35.43-23.55,58.6-59.56,58.6-29.08,0-49.86-9.54-49.86-9.54V415.36h42.94c20.77,0,33.24-12,33.24-30,0-35.43-77.56-25.89-77.56-85.85,0-32.71,23.54-55.88,58.17-55.88a113.42,113.42,0,0,1,45.7,9.54v20.44Z"/><path class="cls-2" d="M907.44,344.19c0,72.45-28.43,101.15-65,101.15s-65-28.7-65-101.15S805.93,243,842.47,243,907.44,271.74,907.44,344.19Zm-32.49,0c0-56.05-14.89-71.08-32.48-71.08S810,288.14,810,344.19s14.88,71.08,32.48,71.08S875,400.23,875,344.19Z"/></svg>